<svg width="261" height="42" viewBox="0 0 261 42" fill="none" xmlns="http://www.w3.org/2000/svg">
<path d="M16.0469 20.9375H7.20312V30H1.71875V7.25H16.9375V11.4844H7.20312V16.7188H16.0469V20.9375ZM24.5312 30H19.25V6H24.5312V30ZM37.3125 30C37.125 29.6562 36.9583 29.151 36.8125 28.4844C35.8438 29.7031 34.4896 30.3125 32.75 30.3125C31.1562 30.3125 29.8021 29.8333 28.6875 28.875C27.5729 27.9062 27.0156 26.6927 27.0156 25.2344C27.0156 23.401 27.6927 22.0156 29.0469 21.0781C30.401 20.1406 32.3698 19.6719 34.9531 19.6719H36.5781V18.7812C36.5781 17.2292 35.9062 16.4531 34.5625 16.4531C33.3125 16.4531 32.6875 17.0677 32.6875 18.2969H27.4219C27.4219 16.6615 28.1146 15.3333 29.5 14.3125C30.8958 13.2917 32.6719 12.7812 34.8281 12.7812C36.9844 12.7812 38.6875 13.3073 39.9375 14.3594C41.1875 15.4115 41.8281 16.8542 41.8594 18.6875V26.1719C41.8802 27.724 42.1198 28.9115 42.5781 29.7344V30H37.3125ZM34.0156 26.5625C34.6719 26.5625 35.2135 26.4219 35.6406 26.1406C36.0781 25.8594 36.3906 25.5417 36.5781 25.1875V22.4844H35.0469C33.2135 22.4844 32.2969 23.3073 32.2969 24.9531C32.2969 25.4323 32.4583 25.8229 32.7812 26.125C33.1042 26.4167 33.5156 26.5625 34.0156 26.5625ZM53.6406 25.25C53.6406 24.8021 53.4062 24.4427 52.9375 24.1719C52.4688 23.901 51.5781 23.6198 50.2656 23.3281C48.9531 23.0365 47.8698 22.6562 47.0156 22.1875C46.1615 21.7083 45.5104 21.1302 45.0625 20.4531C44.6146 19.776 44.3906 19 44.3906 18.125C44.3906 16.5729 45.0312 15.2969 46.3125 14.2969C47.5938 13.2865 49.2708 12.7812 51.3438 12.7812C53.5729 12.7812 55.3646 13.2865 56.7188 14.2969C58.0729 15.3073 58.75 16.6354 58.75 18.2812H53.4688C53.4688 16.9271 52.7552 16.25 51.3281 16.25C50.776 16.25 50.3125 16.4062 49.9375 16.7188C49.5625 17.0208 49.375 17.401 49.375 17.8594C49.375 18.3281 49.6042 18.7083 50.0625 19C50.5208 19.2917 51.25 19.5312 52.25 19.7188C53.2604 19.9062 54.1458 20.1302 54.9062 20.3906C57.4479 21.2656 58.7188 22.8333 58.7188 25.0938C58.7188 26.6354 58.0312 27.8906 56.6562 28.8594C55.2917 29.8281 53.5208 30.3125 51.3438 30.3125C49.8958 30.3125 48.6042 30.0521 47.4688 29.5312C46.3333 29.0104 45.4479 28.3021 44.8125 27.4062C44.1771 26.5104 43.8594 25.5677 43.8594 24.5781H48.7812C48.8021 25.3594 49.0625 25.9323 49.5625 26.2969C50.0625 26.651 50.7031 26.8281 51.4844 26.8281C52.2031 26.8281 52.7396 26.6823 53.0938 26.3906C53.4583 26.099 53.6406 25.7188 53.6406 25.25ZM66.3438 14.9062C67.4688 13.4896 68.9062 12.7812 70.6562 12.7812C72.5208 12.7812 73.9271 13.3333 74.875 14.4375C75.8229 15.5417 76.3073 17.1719 76.3281 19.3281V30H71.0469V19.4531C71.0469 18.5573 70.8646 17.901 70.5 17.4844C70.1354 17.0573 69.5156 16.8438 68.6406 16.8438C67.5573 16.8438 66.7917 17.1875 66.3438 17.875V30H61.0781V6H66.3438V14.9062ZM86.4062 26.25C87.1458 26.25 87.7188 26.0521 88.125 25.6562C88.5312 25.25 88.7292 24.6875 88.7188 23.9688H93.6562C93.6562 25.8229 92.9896 27.3438 91.6562 28.5312C90.3333 29.7188 88.625 30.3125 86.5312 30.3125C84.0729 30.3125 82.1354 29.5417 80.7188 28C79.3021 26.4583 78.5938 24.3229 78.5938 21.5938V21.375C78.5938 19.6667 78.9062 18.1615 79.5312 16.8594C80.1667 15.5469 81.0781 14.5417 82.2656 13.8438C83.4531 13.1354 84.8594 12.7812 86.4844 12.7812C88.6823 12.7812 90.4271 13.3906 91.7188 14.6094C93.0104 15.8281 93.6562 17.4792 93.6562 19.5625H88.7188C88.7188 18.6875 88.5052 18.0156 88.0781 17.5469C87.651 17.0781 87.0781 16.8438 86.3594 16.8438C84.9948 16.8438 84.1979 17.7135 83.9688 19.4531C83.8958 20.0052 83.8594 20.7656 83.8594 21.7344C83.8594 23.4323 84.0625 24.6094 84.4688 25.2656C84.875 25.9219 85.5208 26.25 86.4062 26.25ZM105.406 30C105.219 29.6562 105.052 29.151 104.906 28.4844C103.938 29.7031 102.583 30.3125 100.844 30.3125C99.25 30.3125 97.8958 29.8333 96.7812 28.875C95.6667 27.9062 95.1094 26.6927 95.1094 25.2344C95.1094 23.401 95.7865 22.0156 97.1406 21.0781C98.4948 20.1406 100.464 19.6719 103.047 19.6719H104.672V18.7812C104.672 17.2292 104 16.4531 102.656 16.4531C101.406 16.4531 100.781 17.0677 100.781 18.2969H95.5156C95.5156 16.6615 96.2083 15.3333 97.5938 14.3125C98.9896 13.2917 100.766 12.7812 102.922 12.7812C105.078 12.7812 106.781 13.3073 108.031 14.3594C109.281 15.4115 109.922 16.8542 109.953 18.6875V26.1719C109.974 27.724 110.214 28.9115 110.672 29.7344V30H105.406ZM102.109 26.5625C102.766 26.5625 103.307 26.4219 103.734 26.1406C104.172 25.8594 104.484 25.5417 104.672 25.1875V22.4844H103.141C101.307 22.4844 100.391 23.3073 100.391 24.9531C100.391 25.4323 100.552 25.8229 100.875 26.125C101.198 26.4167 101.609 26.5625 102.109 26.5625ZM123.109 17.8594L121.375 17.7344C119.719 17.7344 118.656 18.2552 118.188 19.2969V30H112.922V13.0938H117.859L118.031 15.2656C118.917 13.6094 120.151 12.7812 121.734 12.7812C122.297 12.7812 122.786 12.8438 123.203 12.9688L123.109 17.8594ZM124.031 21.4219C124.031 18.7448 124.609 16.6354 125.766 15.0938C126.922 13.5521 128.536 12.7812 130.609 12.7812C132.12 12.7812 133.391 13.375 134.422 14.5625V6H139.703V30H134.969L134.703 28.1875C133.62 29.6042 132.245 30.3125 130.578 30.3125C128.568 30.3125 126.974 29.5417 125.797 28C124.62 26.4583 124.031 24.2656 124.031 21.4219ZM129.297 21.75C129.297 24.75 130.172 26.25 131.922 26.25C133.089 26.25 133.922 25.7604 134.422 24.7812V18.3438C133.943 17.3438 133.12 16.8438 131.953 16.8438C130.328 16.8438 129.448 18.1562 129.312 20.7812L129.297 21.75Z" fill="white"/>
<path d="M149.922 7.25L155 23.0781L160.062 7.25H167.281V30H161.781V24.6875L162.312 13.8125L156.812 30H153.188L147.672 13.7969L148.203 24.6875V30H142.719V7.25H149.922ZM180.062 30C179.875 29.6562 179.708 29.151 179.562 28.4844C178.594 29.7031 177.24 30.3125 175.5 30.3125C173.906 30.3125 172.552 29.8333 171.438 28.875C170.323 27.9062 169.766 26.6927 169.766 25.2344C169.766 23.401 170.443 22.0156 171.797 21.0781C173.151 20.1406 175.12 19.6719 177.703 19.6719H179.328V18.7812C179.328 17.2292 178.656 16.4531 177.312 16.4531C176.062 16.4531 175.438 17.0677 175.438 18.2969H170.172C170.172 16.6615 170.865 15.3333 172.25 14.3125C173.646 13.2917 175.422 12.7812 177.578 12.7812C179.734 12.7812 181.438 13.3073 182.688 14.3594C183.938 15.4115 184.578 16.8542 184.609 18.6875V26.1719C184.63 27.724 184.87 28.9115 185.328 29.7344V30H180.062ZM176.766 26.5625C177.422 26.5625 177.964 26.4219 178.391 26.1406C178.828 25.8594 179.141 25.5417 179.328 25.1875V22.4844H177.797C175.964 22.4844 175.047 23.3073 175.047 24.9531C175.047 25.4323 175.208 25.8229 175.531 26.125C175.854 26.4167 176.266 26.5625 176.766 26.5625ZM194.328 23.7031L192.844 25.1875V30H187.578V5.98438H192.844V18.7344L193.375 18.0312L197.344 13.0938H203.656L197.734 20.0469L204.047 30H198.016L194.328 23.7031ZM212.906 30.3125C210.312 30.3125 208.214 29.5417 206.609 28C205.005 26.4479 204.203 24.4323 204.203 21.9531V21.5156C204.203 19.7865 204.521 18.2604 205.156 16.9375C205.802 15.6146 206.74 14.5938 207.969 13.875C209.198 13.1458 210.656 12.7812 212.344 12.7812C214.719 12.7812 216.594 13.5208 217.969 15C219.344 16.4688 220.031 18.5208 220.031 21.1562V23.2031H209.562C209.75 24.151 210.161 24.8958 210.797 25.4375C211.432 25.9792 212.255 26.25 213.266 26.25C214.932 26.25 216.234 25.6667 217.172 24.5L219.578 27.3438C218.922 28.25 217.99 28.974 216.781 29.5156C215.583 30.0469 214.292 30.3125 212.906 30.3125ZM212.312 16.8438C210.771 16.8438 209.854 17.8646 209.562 19.9062H214.875V19.5C214.896 18.6562 214.682 18.0052 214.234 17.5469C213.786 17.0781 213.146 16.8438 212.312 16.8438ZM232.391 17.8594L230.656 17.7344C229 17.7344 227.938 18.2552 227.469 19.2969V30H222.203V13.0938H227.141L227.312 15.2656C228.198 13.6094 229.432 12.7812 231.016 12.7812C231.578 12.7812 232.068 12.8438 232.484 12.9688L232.391 17.8594Z" fill="#1890FF"/>
<path fill-rule="evenodd" clip-rule="evenodd" d="M250.6 14.7143L261 1H243.667L236.733 16.4286H243.667L235 37L257.533 14.7143H250.6Z" fill="#1890FF"/>
</svg>
